<svg width="512" height="512" viewBox="0 0 512 512" xmlns="http://www.w3.org/2000/svg">
  <!-- 白色背景 -->
  <rect width="512" height="512" rx="80" fill="#ffffff"/>

  <!-- 放大的云朵 - 三星蓝色填充（居中 + 缩放1.2倍） -->
  <path d="M 420 270
           C 420 245 400 225 375 225
           C 375 185 340 150 300 150
           C 280 150 260 158 246 172
           C 232 158 212 150 192 150
           C 152 150 117 185 117 225
           C 92 225 72 245 72 270
           C 72 295 92 315 117 315
           L 375 315
           C 400 315 420 295 420 270
           Z"
        fill="#1428A0"
        transform="translate(256, 256) scale(1.2) translate(-246, -232.5)"/>
</svg>
